<svg id="Layer_1" data-name="Layer 1" xmlns="http://www.w3.org/2000/svg" viewBox="0 0 156.13 139.53"><defs><style>.cls-1{fill:#fff;}</style></defs><title>BE-logo</title><path class="cls-1" d="M3.61,106.34A3.62,3.62,0,1,1,0,110,3.64,3.64,0,0,1,3.61,106.34ZM0.71,138.86V117.12H6.56v21.74H0.71Z"/><path class="cls-1" d="M16,138.86H10.17V117.12h5.68v2.7a7.19,7.19,0,0,1,6.25-3.27c5.37,0,7.84,3.84,7.84,8.62v13.7H24.08V126.18c0-2.43-1.19-4.33-4-4.33-2.55,0-4,2-4,4.51v12.51Z"/><path class="cls-1" d="M45.74,138.86H39.88L31,117.12h6.43l5.37,14.58L48,117.12h6.16Z"/><path class="cls-1" d="M76.37,128A11.36,11.36,0,1,1,65,116.46,11.14,11.14,0,0,1,76.37,128Zm-5.85,0c0-4.11-2.64-6.19-5.5-6.19s-5.5,2.08-5.5,6.19,2.64,6.19,5.5,6.19S70.52,132.1,70.52,128Z"/><path class="cls-1" d="M78.35,138.86v-32h5.85v32H78.35Z"/><path class="cls-1" d="M100.71,138.86H94.86L86,117.12h6.43l5.37,14.58L103,117.12h6.16Z"/><path class="cls-1" d="M129.68,132.63c-1.1,3.76-4.53,6.89-9.86,6.89-5.94,0-11.18-4.29-11.18-11.62,0-6.94,5.11-11.45,10.65-11.45,6.69,0,10.7,4.29,10.7,11.27,0,0.84-.09,1.72-0.09,1.81H114.4a5.28,5.28,0,0,0,5.46,4.95,4.78,4.78,0,0,0,4.93-3.31Zm-5.46-7.11c-0.09-2.17-1.5-4.29-4.84-4.29a4.69,4.69,0,0,0-4.84,4.29h9.68Z"/><path class="cls-1" d="M154.37,134.93c0,1.46.09,3,.18,3.93H149a15,15,0,0,1-.22-2.52,6.78,6.78,0,0,1-6.08,3c-6.16,0-10.56-4.86-10.56-11.45,0-6.36,4.27-11.36,10.39-11.36,3.74,0,5.5,1.55,6.12,2.7V106.87h5.77v28.06Zm-11-.8c3,0,5.33-2.3,5.33-6.23s-2.33-6.05-5.33-6.05-5.37,2.21-5.37,6.1S140.28,134.14,143.36,134.14Z"/><path class="cls-1" d="M0.11,0h5A10.09,10.09,0,0,1,15.18,10.1v18s9.36-9,23.17-9c18.25,0,36.5,13.52,36.5,37.08S56.6,93.2,38.35,93.2c-9.85,0-19.55-4.65-23.17-10.47v8.58H0.11V0ZM37,33.3c-12.6,0-21.87,9.74-21.87,22.83S24.45,78.95,37,78.95s21.87-9.74,21.87-22.83S49.64,33.3,37,33.3Z"/><path class="cls-1" d="M136.65,71.82c-4.86,5.13-10.41,8-17.3,8-10.18,0-19.82-7.14-21.3-17.27h58.08v-4C156.13,31.11,134.4,19,119.78,19,95.3,19,81.11,37.51,81.11,56.12S95.3,93.2,119.78,93.2a39.68,39.68,0,0,0,28.55-12.37,38.11,38.11,0,0,0,6.48-9H136.65Zm-18.9-39.4c9.56,0,17.52,5.67,20.71,16.43H97.91C100.37,38.38,108.19,32.42,117.75,32.42Z"/></svg>