<?xml version="1.0" encoding="utf-8"?>
<!-- Generator: Adobe Illustrator 19.2.0, SVG Export Plug-In . SVG Version: 6.00 Build 0)  -->
<svg version="1.1" id="Layer_1" xmlns="http://www.w3.org/2000/svg" xmlns:xlink="http://www.w3.org/1999/xlink" x="0px" y="0px"
	 viewBox="0 0 42.1 42.1" style="enable-background:new 0 0 42.1 42.1;" xml:space="preserve">
<style type="text/css">
	.st0{fill:#787878;}
</style>
<g id="Facebook_1_">
	<path class="st0" d="M21,42.1c-11.6,0-21-9.4-21-21S9.4,0,21,0s21,9.4,21,21S32.6,42.1,21,42.1z M21,1.6C10.3,1.6,1.6,10.3,1.6,21
		S10.3,40.5,21,40.5S40.5,31.8,40.5,21S31.8,1.6,21,1.6z"/>
	<path id="Facebook_2_" class="st0" d="M30.7,29.4c0,0.6-0.5,1.1-1.1,1.1h-5v-7.6h2.5l0.4-3h-2.9V18c0-0.9,0.2-1.4,1.5-1.4l1.6,0V14
		c-0.3,0-1.2-0.1-2.3-0.1c-2.3,0-3.8,1.4-3.8,3.9v2.2H19v3h2.6v7.6h-9.4c-0.6,0-1.1-0.5-1.1-1.1V12c0-0.6,0.5-1.1,1.1-1.1h17.4
		c0.6,0,1.1,0.5,1.1,1.1V29.4z"/>
</g>
</svg>
