<svg id="Layer_1" data-name="Layer 1" xmlns="http://www.w3.org/2000/svg" viewBox="0 0 42.08 42.08"><defs><style>.cls-1{fill:#787878;}</style></defs><title>footer-icon-YT</title><path class="cls-1" d="M21,42.08a21,21,0,1,1,21-21A21.07,21.07,0,0,1,21,42.08ZM21,1.6A19.44,19.44,0,1,0,40.48,21,19.46,19.46,0,0,0,21,1.6Z"/><path class="cls-1" d="M26,12.7v4.75a1.66,1.66,0,0,1-.39.34,0.77,0.77,0,0,1-.36.14,0.31,0.31,0,0,1-.25-0.1,0.48,0.48,0,0,1-.09-0.33V12.7H23.64v5.23a1.32,1.32,0,0,0,.23.84,0.8,0.8,0,0,0,.67.28,1.72,1.72,0,0,0,.75-0.19A2.78,2.78,0,0,0,26,18.27V19H27.3V12.7H26Zm-3.91.3a1.85,1.85,0,0,0-1.31-.47,2.13,2.13,0,0,0-1.4.44,1.43,1.43,0,0,0-.51,1.16v3.24a1.67,1.67,0,0,0,.5,1.27,2.19,2.19,0,0,0,2.71,0,1.58,1.58,0,0,0,.5-1.26V14.17A1.53,1.53,0,0,0,22.11,13Zm-0.8,4.5a0.52,0.52,0,0,1-.15.39,0.55,0.55,0,0,1-.41.15,0.5,0.5,0,0,1-.39-0.15,0.55,0.55,0,0,1-.14-0.39V14.09a0.39,0.39,0,0,1,.15-0.33,0.53,0.53,0,0,1,.38-0.13,0.64,0.64,0,0,1,.41.13,0.39,0.39,0,0,1,.15.33V17.5Zm-4-7-0.89,3.39h-0.1l-0.93-3.39H14l1.72,5.13V19h1.44V15.44l1.67-5H17.33Zm10,14.94a0.87,0.87,0,0,1,.11.5V26.5h-1V25.92a0.78,0.78,0,0,1,.11-0.5,0.46,0.46,0,0,1,.39-0.16A0.45,0.45,0,0,1,27.33,25.42Zm-3.95,0A0.42,0.42,0,0,0,23,25.25a0.55,0.55,0,0,0-.24,0,1,1,0,0,0-.24.18V29a0.94,0.94,0,0,0,.28.2,0.67,0.67,0,0,0,.26.06,0.35,0.35,0,0,0,.31-0.13,0.6,0.6,0,0,0,.1-0.39V25.83A0.62,0.62,0,0,0,23.38,25.4Zm0,0A0.42,0.42,0,0,0,23,25.25a0.55,0.55,0,0,0-.24,0,1,1,0,0,0-.24.18V29a0.94,0.94,0,0,0,.28.2,0.67,0.67,0,0,0,.26.06,0.35,0.35,0,0,0,.31-0.13,0.6,0.6,0,0,0,.1-0.39V25.83A0.62,0.62,0,0,0,23.38,25.4ZM29.83,21H12a3.58,3.58,0,0,0-3.56,3.57v3.63A3.57,3.57,0,0,0,12,31.77H29.83a3.57,3.57,0,0,0,3.56-3.56V24.58A3.58,3.58,0,0,0,29.83,21Zm-13,2.5H15.47V30.1H14.19V23.51H12.87V22.39h3.93v1.12Zm3.74,6.59H19.41V29.47a2.11,2.11,0,0,1-.65.53,1.33,1.33,0,0,1-.66.19,0.72,0.72,0,0,1-.6-0.26,1.23,1.23,0,0,1-.19-0.75V24.4h1.13v4.37a0.46,0.46,0,0,0,.08.29,0.25,0.25,0,0,0,.23.09A0.57,0.57,0,0,0,19.06,29a1.15,1.15,0,0,0,.35-0.3V24.4h1.14V30.1Zm4.12-1.18a1.44,1.44,0,0,1-.26.93,1,1,0,0,1-.78.33A1.3,1.3,0,0,1,23,30a1.59,1.59,0,0,1-.49-0.39V30.1H21.41v-7.7h1.14v2.47A1.8,1.8,0,0,1,23,24.48a1.18,1.18,0,0,1,.53-0.14,1,1,0,0,1,.82.36,1.67,1.67,0,0,1,.29,1.06v3.15Zm3.95-1.52H26.44v1.07a1.19,1.19,0,0,0,.1.62,0.42,0.42,0,0,0,.39.18,0.45,0.45,0,0,0,.39-0.15,1.17,1.17,0,0,0,.11-0.64V28.2h1.18v0.29a1.79,1.79,0,0,1-.44,1.32,1.64,1.64,0,0,1-1.27.44,1.56,1.56,0,0,1-1.21-.47,1.84,1.84,0,0,1-.44-1.3V25.94a1.6,1.6,0,0,1,.49-1.21A1.72,1.72,0,0,1,27,24.27a1.58,1.58,0,0,1,1.19.44,1.7,1.7,0,0,1,.43,1.23V27.4ZM23,25.25a0.55,0.55,0,0,0-.24,0,1,1,0,0,0-.24.18V29a0.94,0.94,0,0,0,.28.2,0.67,0.67,0,0,0,.26.06,0.35,0.35,0,0,0,.31-0.13,0.6,0.6,0,0,0,.1-0.39V25.83a0.62,0.62,0,0,0-.13-0.43A0.42,0.42,0,0,0,23,25.25Zm0.35,0.15A0.42,0.42,0,0,0,23,25.25a0.55,0.55,0,0,0-.24,0,1,1,0,0,0-.24.18V29a0.94,0.94,0,0,0,.28.2,0.67,0.67,0,0,0,.26.06,0.35,0.35,0,0,0,.31-0.13,0.6,0.6,0,0,0,.1-0.39V25.83A0.62,0.62,0,0,0,23.38,25.4Zm0,0A0.42,0.42,0,0,0,23,25.25a0.55,0.55,0,0,0-.24,0,1,1,0,0,0-.24.18V29a0.94,0.94,0,0,0,.28.2,0.67,0.67,0,0,0,.26.06,0.35,0.35,0,0,0,.31-0.13,0.6,0.6,0,0,0,.1-0.39V25.83A0.62,0.62,0,0,0,23.38,25.4Z"/></svg>