<svg id="Layer_1" data-name="Layer 1" xmlns="http://www.w3.org/2000/svg" viewBox="0 0 42.08 42.08"><defs><style>.cls-1{fill:#787878;}</style></defs><title>footer-icon-IN</title><g id="LinKeDin"><g id="LinkedIn-2" data-name="LinkedIn"><rect class="cls-1" x="12.06" y="17.98" width="3.83" height="12.15"/><path class="cls-1" d="M26.37,17.87c-2.2,0-3.57,1.19-3.83,2V18H18.23c0.06,1,0,12.15,0,12.15h4.31V23.56a2.77,2.77,0,0,1,.09-1,2.19,2.19,0,0,1,2.08-1.49c1.5,0,2.18,1.12,2.18,2.77v6.29h4.35V23.37C31.23,19.61,29.09,17.87,26.37,17.87Z"/><path class="cls-1" d="M13.9,12.25a2.14,2.14,0,0,0-2.34,2.11,2.12,2.12,0,0,0,2.29,2.11h0A2.12,2.12,0,1,0,13.9,12.25Z"/></g><path class="cls-1" d="M21,42.08a21,21,0,1,1,21-21A21.07,21.07,0,0,1,21,42.08ZM21,1.6A19.44,19.44,0,1,0,40.48,21,19.46,19.46,0,0,0,21,1.6Z"/></g></svg>