<svg id="Layer_1" data-name="Layer 1" xmlns="http://www.w3.org/2000/svg" viewBox="0 0 42.08 42.08"><defs><style>.cls-1,.cls-2{fill:#787878;}.cls-2{fill-rule:evenodd;}</style></defs><title>footer-icon-BLOGGER</title><path class="cls-1" d="M20.62,42.1a21,21,0,1,1,21-21A21.07,21.07,0,0,1,20.62,42.1Zm0-40.48A19.44,19.44,0,1,0,40.06,21.06,19.46,19.46,0,0,0,20.62,1.61Z" transform="translate(0.42 -0.01)"/><path class="cls-2" d="M17.64,12.06h3.81a5.87,5.87,0,0,1,5.23,5.27v0.51a1.1,1.1,0,0,0,1.23,1.05H28.7a1.1,1.1,0,0,1,1.21,1.34v4.32a5.58,5.58,0,0,1-5.51,5.51H17.16a5.52,5.52,0,0,1-5.25-5.45V17.77a5.67,5.67,0,0,1,5.72-5.72h0Zm0,4.73h3.27a1,1,0,1,1,0,2.09H17.64a1,1,0,1,1,0-2.09h0Zm0,6.51h6.5a1,1,0,1,1,0,2.09h-6.5a1,1,0,1,1,0-2.09h0Z" transform="translate(0.42 -0.01)"/></svg>